# xmcd
#
# Track frame offsets:
#	150
#	16996
#	32592
#	50163
#	71585
#	93720
#	105781
#	123187
#	141917
#	161762
#	182139
#	204328
#	222955
#	241482
#	265050
#	282537
#
# Disc length: 3950 seconds
#
# Revision: 0
# Processed by: cddbd v1.5.1PL0 Copyright (c) Steve Scherf et al.
# Submitted via: audiograbber 1.83.01
#
DISCID=ea0f6c10
DTITLE=Αντωνης Βαρδης - Οι φιλοι μου κι εγω CD2
DYEAR=2005
DGENRE=
TTITLE0=Χαρις Αλεξιου - Εδω σε θελω
TTITLE1=Γλυκερια - Θα μ' αγαπησεις
TTITLE2=Μανωλης Μητσιας - Θ' αναζητας
TTITLE3=Αντωνης Ρεμος - Ετσι ξαφνικα
TTITLE4=Γιαννης Βαρδης - Αμα δεις τα παδια (Πες ενα γεια)
TTITLE5=Βασιλης Παπακωνσταντινου - Φευγουν καραβια
TTITLE6=Μανωλης Λιδακης - Κουραστικα να υποκρινομαι
TTITLE7=Δημητρα Γαλανη - Μ' αγαπουσες
TTITLE8=Γλυκερια - Εκλαιγε μαζι μου το φεγγαρι
TTITLE9=Γιαννης Παριος - Μου 'χεις κανει τη ζωη μου κολαση
TTITLE10=Γιαννης Βαρδης - Ισως
TTITLE11=Μανωλης Μητσιας - Εμενα αφορα
TTITLE12=Αννα Βισση - Οτι κι αν πεις
TTITLE13=Αντωνης Βαρδης - Ξυπνησα 5 το πρωι
TTITLE14=Γλυκερια - Δεν εχω πια δικαιωμα
TTITLE15=Πιτσα Παπαδοπουλου - Ανευ ορων
EXTD=
EXTT0=
EXTT1=
EXTT2=
EXTT3=
EXTT4=
EXTT5=
EXTT6=
EXTT7=
EXTT8=
EXTT9=
EXTT10=
EXTT11=
EXTT12=
EXTT13=
EXTT14=
EXTT15=
PLAYORDER=
